<svg xmlns="http://www.w3.org/2000/svg" viewBox="0 0 1440 900" role="img" aria-labelledby="title desc">
  <title id="title">Layered earth and clay landscape</title>
  <desc id="desc">Bold organic waves in earthen hues symbolizing Gaia LLC's craftsmanship, pottery inspiration, and land development vision.</desc>
  <defs>
    <linearGradient id="dawn" x1="0" y1="0" x2="0" y2="1">
      <stop offset="0%" stop-color="#ffe8d9" />
      <stop offset="50%" stop-color="#ffd1a8" />
      <stop offset="100%" stop-color="#f6b17a" />
    </linearGradient>
    <linearGradient id="earth" x1="0" y1="0" x2="1" y2="1">
      <stop offset="0%" stop-color="#5c3a24" />
      <stop offset="100%" stop-color="#a3683a" />
    </linearGradient>
    <linearGradient id="leaf" x1="0" y1="0" x2="1" y2="1">
      <stop offset="0%" stop-color="#3a7a3f" />
      <stop offset="100%" stop-color="#8cc46a" />
    </linearGradient>
    <linearGradient id="river" x1="0" y1="0" x2="1" y2="1">
      <stop offset="0%" stop-color="#2b5c81" />
      <stop offset="100%" stop-color="#6fb1c4" />
    </linearGradient>
    <pattern id="texture" patternUnits="userSpaceOnUse" width="40" height="40">
      <circle cx="6" cy="6" r="2" fill="#f7c79d" opacity="0.4" />
      <circle cx="26" cy="16" r="3" fill="#e4a46f" opacity="0.3" />
      <circle cx="14" cy="30" r="2" fill="#f3b680" opacity="0.4" />
      <circle cx="34" cy="34" r="1.5" fill="#e7a66f" opacity="0.4" />
    </pattern>
  </defs>
  <rect width="1440" height="900" fill="url(#dawn)" />
  <path d="M0 620 C180 540 280 520 420 580 C600 660 760 520 940 540 C1080 556 1240 640 1440 540 L1440 900 H0 Z" fill="url(#earth)" opacity="0.92" />
  <path d="M0 520 C220 500 380 420 560 500 C740 580 1000 440 1240 480 C1340 498 1440 460 1440 460 L1440 900 0 900 Z" fill="url(#texture)" opacity="0.6" />
  <path d="M0 420 C140 440 360 360 520 420 C720 498 900 360 1120 420 C1280 466 1440 400 1440 400 L1440 900 0 900 Z" fill="url(#leaf)" opacity="0.75" />
  <path d="M0 320 C240 360 480 260 720 360 C960 460 1200 280 1440 360 L1440 900 0 900 Z" fill="url(#river)" opacity="0.55" />
  <g fill="#ffffff" opacity="0.4">
    <circle cx="240" cy="160" r="36" />
    <circle cx="360" cy="200" r="22" />
    <circle cx="520" cy="140" r="28" />
    <circle cx="760" cy="180" r="24" />
    <circle cx="980" cy="140" r="30" />
    <circle cx="1180" cy="200" r="26" />
  </g>
</svg>
