<svg xmlns="http://www.w3.org/2000/svg" viewBox="0 0 1440 900" role="img" aria-labelledby="title desc">
  <title id="title">Networked architectural skyline abstract</title>
  <desc id="desc">Abstract gradient cityscape with interconnected lines symbolizing Gaia LLC's integrated real estate and design services.</desc>
  <defs>
    <linearGradient id="sky" x1="0" y1="0" x2="1" y2="1">
      <stop offset="0%" stop-color="#f6f7fb" />
      <stop offset="50%" stop-color="#eef3f1" />
      <stop offset="100%" stop-color="#d8e7dd" />
    </linearGradient>
    <linearGradient id="accent" x1="0" y1="0" x2="1" y2="1">
      <stop offset="0%" stop-color="#4a8f6d" />
      <stop offset="100%" stop-color="#9ac78d" />
    </linearGradient>
    <linearGradient id="accentLine" x1="0" y1="0" x2="1" y2="1">
      <stop offset="0%" stop-color="#2f5f92" />
      <stop offset="100%" stop-color="#8fc7d9" />
    </linearGradient>
    <clipPath id="cityClip">
      <rect x="0" y="360" width="1440" height="540" rx="40" />
    </clipPath>
    <radialGradient id="node" cx="0.5" cy="0.5" r="0.5">
      <stop offset="0%" stop-color="#ffffff" stop-opacity="0.9" />
      <stop offset="100%" stop-color="#3a7a5b" stop-opacity="0.3" />
    </radialGradient>
  </defs>
  <rect width="1440" height="900" fill="url(#sky)" />
  <g clip-path="url(#cityClip)">
    <rect x="0" y="360" width="1440" height="540" fill="#ffffff" fill-opacity="0.65" />
    <g stroke="#a4b8ad" stroke-width="4" fill="none" stroke-linecap="round">
      <path d="M120 860 V520" />
      <path d="M220 860 V560" />
      <path d="M340 860 V500" />
      <path d="M420 860 V620" />
      <path d="M540 860 V540" />
      <path d="M660 860 V480" />
      <path d="M780 860 V600" />
      <path d="M900 860 V520" />
      <path d="M1020 860 V560" />
      <path d="M1140 860 V480" />
      <path d="M1260 860 V580" />
    </g>
    <g stroke="url(#accentLine)" stroke-width="6" fill="none" stroke-linecap="round">
      <path d="M160 600 L340 520 L520 620 L720 500 L940 580 L1180 520" />
      <path d="M200 700 L420 620 L600 720 L860 600 L1100 660" opacity="0.6" />
    </g>
    <g fill="url(#node)">
      <circle cx="160" cy="600" r="16" />
      <circle cx="340" cy="520" r="18" />
      <circle cx="520" cy="620" r="18" />
      <circle cx="720" cy="500" r="20" />
      <circle cx="940" cy="580" r="18" />
      <circle cx="1180" cy="520" r="16" />
    </g>
    <rect x="80" y="560" width="160" height="300" fill="url(#accent)" opacity="0.65" />
    <rect x="280" y="520" width="220" height="340" fill="url(#accent)" opacity="0.55" />
    <rect x="560" y="500" width="180" height="360" fill="url(#accent)" opacity="0.5" />
    <rect x="780" y="540" width="200" height="320" fill="url(#accent)" opacity="0.6" />
    <rect x="1040" y="520" width="240" height="340" fill="url(#accent)" opacity="0.45" />
  </g>
  <path d="M0 300 C240 200 480 180 720 300 C960 420 1200 400 1440 260 L1440 900 L0 900 Z" fill="url(#accent)" opacity="0.18" />
</svg>
