<svg xmlns="http://www.w3.org/2000/svg" viewBox="0 0 800 600" role="img" aria-labelledby="title desc">
  <title id="title">Crafted clay layers and growth</title>
  <desc id="desc">Dynamic clay rings and sprouting lines reflecting Gaia LLC's pottery aesthetic and sustainable land creation.</desc>
  <defs>
    <linearGradient id="warm" x1="0" y1="0" x2="1" y2="1">
      <stop offset="0%" stop-color="#f6b17a" />
      <stop offset="100%" stop-color="#d9772f" />
    </linearGradient>
    <linearGradient id="green" x1="0" y1="0" x2="1" y2="1">
      <stop offset="0%" stop-color="#3a7a3f" />
      <stop offset="100%" stop-color="#9bd07c" />
    </linearGradient>
    <linearGradient id="blue" x1="0" y1="0" x2="1" y2="1">
      <stop offset="0%" stop-color="#2b5c81" />
      <stop offset="100%" stop-color="#6fb1c4" />
    </linearGradient>
  </defs>
  <rect width="800" height="600" fill="#fff1e7" />
  <g fill="none" stroke="url(#warm)" stroke-width="32" opacity="0.7">
    <path d="M120 480 C220 360 360 520 480 400 C560 320 660 360 700 320" />
  </g>
  <g fill="none" stroke="url(#green)" stroke-width="24" opacity="0.75">
    <path d="M80 420 C200 340 340 420 460 320 C560 240 680 280 760 200" />
  </g>
  <g fill="none" stroke="url(#blue)" stroke-width="20" opacity="0.6">
    <path d="M60 360 C200 280 320 360 460 260 C600 160 700 220 820 120" />
  </g>
  <g fill="#fbe0c5" opacity="0.8">
    <circle cx="220" cy="320" r="60" />
    <circle cx="420" cy="240" r="46" />
    <circle cx="600" cy="200" r="52" />
  </g>
  <g stroke="#35683a" stroke-width="6" stroke-linecap="round">
    <path d="M220 320 L220 200" />
    <path d="M420 240 L420 140" />
    <path d="M600 200 L600 120" />
  </g>
  <g fill="#35683a">
    <path d="M220 200 l-18 -24 18 8 18 -8z" />
    <path d="M420 140 l-18 -24 18 8 18 -8z" />
    <path d="M600 120 l-18 -24 18 8 18 -8z" />
  </g>
</svg>
