<svg xmlns="http://www.w3.org/2000/svg" viewBox="0 0 800 600" role="img" aria-labelledby="title desc">
  <title id="title">Modular property planning grid</title>
  <desc id="desc">Geometric grid with organic highlights representing Gaia LLC's property development planning and tailored consulting.</desc>
  <defs>
    <linearGradient id="gridBg" x1="0" y1="0" x2="1" y2="1">
      <stop offset="0%" stop-color="#f8faf5" />
      <stop offset="100%" stop-color="#e1efe5" />
    </linearGradient>
    <linearGradient id="gridAccent" x1="0" y1="0" x2="1" y2="1">
      <stop offset="0%" stop-color="#2f5f92" />
      <stop offset="100%" stop-color="#6bb896" />
    </linearGradient>
  </defs>
  <rect width="800" height="600" fill="url(#gridBg)" />
  <g stroke="#c8d7cc" stroke-width="2">
    <path d="M80 120 H720" />
    <path d="M80 220 H720" />
    <path d="M80 320 H720" />
    <path d="M80 420 H720" />
    <path d="M80 520 H720" />
    <path d="M180 60 V540" />
    <path d="M300 60 V540" />
    <path d="M440 60 V540" />
    <path d="M580 60 V540" />
    <path d="M700 60 V540" />
  </g>
  <rect x="180" y="220" width="120" height="200" rx="20" fill="url(#gridAccent)" opacity="0.75" />
  <rect x="340" y="160" width="140" height="260" rx="24" fill="url(#gridAccent)" opacity="0.5" />
  <rect x="520" y="260" width="120" height="160" rx="24" fill="url(#gridAccent)" opacity="0.65" />
  <circle cx="260" cy="220" r="16" fill="#ffffff" opacity="0.9" />
  <circle cx="410" cy="160" r="18" fill="#ffffff" opacity="0.8" />
  <circle cx="580" cy="260" r="18" fill="#ffffff" opacity="0.8" />
</svg>
