<svg xmlns="http://www.w3.org/2000/svg" viewBox="0 0 1200 800" role="img" aria-labelledby="title desc">
  <title id="title">Gaia LLCの都市開発とサインデザインを象徴するミニマルアート</title>
  <desc id="desc">ブランドブルーとグリーンを主体に、建築のレイヤーとサインボックスを組み合わせた抽象構成。中央に昇る光が価値創造を表す。</desc>
  <defs>
    <linearGradient id="sky" x1="0%" y1="0%" x2="100%" y2="100%">
      <stop offset="0%" stop-color="#f8fbff" />
      <stop offset="100%" stop-color="#e9f3ff" />
    </linearGradient>
    <linearGradient id="beam" x1="0%" y1="0%" x2="0%" y2="100%">
      <stop offset="0%" stop-color="#36b37e" stop-opacity="0.9" />
      <stop offset="100%" stop-color="#0052cc" stop-opacity="0.2" />
    </linearGradient>
    <linearGradient id="accent" x1="0%" y1="0%" x2="100%" y2="0%">
      <stop offset="0%" stop-color="#f5a623" />
      <stop offset="100%" stop-color="#ffdd9c" />
    </linearGradient>
  </defs>
  <rect width="1200" height="800" fill="url(#sky)" />
  <g opacity="0.45">
    <rect x="220" y="120" width="180" height="560" fill="#e1ebff" rx="28" />
    <rect x="430" y="160" width="210" height="520" fill="#d7f3ea" rx="32" />
    <rect x="660" y="100" width="240" height="580" fill="#dce8ff" rx="32" />
    <rect x="930" y="220" width="120" height="460" fill="#e9f6ff" rx="24" />
  </g>
  <g>
    <rect x="260" y="260" width="210" height="240" fill="#ffffff" stroke="#0052cc" stroke-width="6" rx="28" />
    <rect x="520" y="220" width="240" height="280" fill="#ffffff" stroke="#36b37e" stroke-width="6" rx="30" />
    <rect x="820" y="300" width="160" height="200" fill="#ffffff" stroke="#0052cc" stroke-width="6" rx="26" />
  </g>
  <g opacity="0.25">
    <path d="M140 640 C 260 520, 420 500, 600 620 C 780 740, 960 720, 1140 580" fill="none" stroke="#0052cc" stroke-width="28" stroke-linecap="round" />
  </g>
  <g opacity="0.45">
    <rect x="420" y="80" width="40" height="160" fill="url(#beam)" rx="20" />
    <rect x="620" y="80" width="40" height="200" fill="url(#beam)" rx="20" />
    <rect x="820" y="80" width="40" height="180" fill="url(#beam)" rx="20" />
  </g>
  <rect x="560" y="440" width="80" height="190" fill="url(#accent)" rx="26" opacity="0.85" />
  <circle cx="600" cy="360" r="120" fill="none" stroke="#36b37e" stroke-width="14" stroke-dasharray="18 18" opacity="0.65" />
</svg>
