<svg xmlns="http://www.w3.org/2000/svg" viewBox="0 0 1440 900" role="img" aria-labelledby="title desc">
  <title id="title">Luminous signage gradient landscape</title>
  <desc id="desc">Dark gradient city backdrop with glowing signage-inspired ribbons representing Gaia LLC's bespoke signboard and media mix services.</desc>
  <defs>
    <linearGradient id="night" x1="0" y1="0" x2="1" y2="1">
      <stop offset="0%" stop-color="#050914" />
      <stop offset="100%" stop-color="#1d2539" />
    </linearGradient>
    <radialGradient id="glow" cx="0.5" cy="0.5" r="0.6">
      <stop offset="0%" stop-color="#f8ffdb" stop-opacity="0.9" />
      <stop offset="40%" stop-color="#d3ff8a" stop-opacity="0.6" />
      <stop offset="100%" stop-color="#4bd6c2" stop-opacity="0" />
    </radialGradient>
    <linearGradient id="ribbonA" x1="0" y1="0" x2="1" y2="1">
      <stop offset="0%" stop-color="#48f0c0" />
      <stop offset="50%" stop-color="#51a7ff" />
      <stop offset="100%" stop-color="#c96bff" />
    </linearGradient>
    <linearGradient id="ribbonB" x1="0" y1="0" x2="1" y2="1">
      <stop offset="0%" stop-color="#ff8a5b" />
      <stop offset="100%" stop-color="#ffd46b" />
    </linearGradient>
    <filter id="glowBlur" x="-30%" y="-30%" width="160%" height="160%">
      <feGaussianBlur stdDeviation="20" />
    </filter>
  </defs>
  <rect width="1440" height="900" fill="url(#night)" />
  <circle cx="360" cy="220" r="260" fill="url(#glow)" />
  <circle cx="1080" cy="240" r="220" fill="url(#glow)" opacity="0.8" />
  <g opacity="0.4" fill="#0f1626">
    <path d="M140 720 h80 v120 h-80z" />
    <path d="M280 660 h120 v180 h-120z" />
    <path d="M460 700 h90 v140 h-90z" />
    <path d="M620 620 h140 v220 h-140z" />
    <path d="M820 660 h110 v180 h-110z" />
    <path d="M980 700 h100 v140 h-100z" />
    <path d="M1140 640 h140 v200 h-140z" />
  </g>
  <path d="M-80 640 C200 520 360 620 600 560 C860 494 960 640 1200 560 C1380 500 1520 600 1580 560" stroke="url(#ribbonA)" stroke-width="120" stroke-linecap="round" fill="none" opacity="0.6" filter="url(#glowBlur)" />
  <path d="M-60 720 C200 620 420 760 680 640 C860 560 1060 700 1360 600" stroke="url(#ribbonB)" stroke-width="80" stroke-linecap="round" fill="none" opacity="0.8" filter="url(#glowBlur)" />
  <path d="M-40 780 C200 720 480 820 740 720 C980 630 1160 760 1480 640" stroke="url(#ribbonA)" stroke-width="60" stroke-linecap="round" fill="none" opacity="0.6" />
</svg>
