<svg xmlns="http://www.w3.org/2000/svg" viewBox="0 0 800 600" role="img" aria-labelledby="title desc">
  <title id="title">Neon media mix pathways</title>
  <desc id="desc">Curved neon trails and signage panels symbolizing Gaia LLC's unique street-side advertising experiences.</desc>
  <defs>
    <linearGradient id="bg" x1="0" y1="0" x2="1" y2="1">
      <stop offset="0%" stop-color="#0b1223" />
      <stop offset="100%" stop-color="#1c1f3a" />
    </linearGradient>
    <linearGradient id="trailA" x1="0" y1="0" x2="1" y2="1">
      <stop offset="0%" stop-color="#47f0bf" />
      <stop offset="100%" stop-color="#5aa7ff" />
    </linearGradient>
    <linearGradient id="trailB" x1="0" y1="0" x2="1" y2="1">
      <stop offset="0%" stop-color="#ff8a5b" />
      <stop offset="100%" stop-color="#ffd46b" />
    </linearGradient>
    <filter id="blur" x="-20%" y="-20%" width="140%" height="140%">
      <feGaussianBlur stdDeviation="14" />
    </filter>
  </defs>
  <rect width="800" height="600" fill="url(#bg)" />
  <path d="M-40 480 C140 400 320 560 500 440 C640 360 720 480 860 420" stroke="url(#trailA)" stroke-width="80" fill="none" opacity="0.5" filter="url(#blur)" />
  <path d="M-80 380 C160 300 360 460 520 340 C660 240 760 340 880 300" stroke="url(#trailB)" stroke-width="60" fill="none" opacity="0.7" filter="url(#blur)" />
  <path d="M-20 520 C220 460 360 520 560 420 C720 340 800 420 920 360" stroke="url(#trailA)" stroke-width="40" fill="none" opacity="0.6" />
  <g fill="#0f1626" opacity="0.9">
    <rect x="140" y="160" width="140" height="220" rx="18" />
    <rect x="340" y="120" width="160" height="260" rx="18" />
    <rect x="560" y="180" width="130" height="200" rx="18" />
  </g>
  <g fill="#e8ffd7" opacity="0.8">
    <rect x="160" y="200" width="100" height="60" rx="12" />
    <rect x="360" y="160" width="120" height="70" rx="12" />
    <rect x="580" y="220" width="90" height="60" rx="12" />
  </g>
</svg>
