<svg xmlns="http://www.w3.org/2000/svg" viewBox="0 0 1200 800" role="img" aria-labelledby="title desc">
  <title id="title">陶芸と都市開発を融合させた大胆なビジュアルアート</title>
  <desc id="desc">大きなストロークと円弧で土の温かさと都市の構造を共存させ、ブランドカラーで価値創造のダイナミズムを描写。</desc>
  <defs>
    <linearGradient id="sunrise" x1="0%" y1="0%" x2="100%" y2="100%">
      <stop offset="0%" stop-color="#ffe8c7" />
      <stop offset="100%" stop-color="#fff4e5" />
    </linearGradient>
    <linearGradient id="river" x1="0%" y1="0%" x2="100%" y2="0%">
      <stop offset="0%" stop-color="#36b37e" />
      <stop offset="100%" stop-color="#27c4a6" />
    </linearGradient>
    <linearGradient id="skyline" x1="0%" y1="0%" x2="100%" y2="0%">
      <stop offset="0%" stop-color="#0052cc" />
      <stop offset="100%" stop-color="#3b7cff" />
    </linearGradient>
  </defs>
  <rect width="1200" height="800" fill="url(#sunrise)" />
  <path d="M0 520 C 160 360, 320 380, 520 460 S 880 540, 1200 420 L 1200 800 L 0 800 Z" fill="url(#river)" opacity="0.55" />
  <path d="M0 600 C 140 560, 320 660, 520 620 S 900 560, 1200 640 L 1200 800 L 0 800 Z" fill="#f5a623" opacity="0.35" />
  <g opacity="0.85">
    <path d="M200 540 C 220 420, 300 280, 460 260 C 660 240, 760 420, 820 520 C 880 620, 980 660, 1020 720" fill="none" stroke="url(#skyline)" stroke-width="56" stroke-linecap="round" />
    <circle cx="380" cy="360" r="110" fill="#ffffff" opacity="0.75" />
    <circle cx="780" cy="340" r="150" fill="#0052cc" opacity="0.18" />
  </g>
  <g opacity="0.9">
    <rect x="240" y="220" width="160" height="200" rx="48" fill="#0052cc" />
    <rect x="420" y="180" width="200" height="240" rx="60" fill="#36b37e" />
    <rect x="660" y="220" width="240" height="220" rx="70" fill="#f5a623" />
  </g>
  <g opacity="0.5">
    <path d="M160 720 Q 240 660 320 720 T 480 720 T 640 720 T 800 720 T 960 720 T 1120 720" fill="none" stroke="#0052cc" stroke-width="20" stroke-linecap="round" stroke-linejoin="round" />
  </g>
</svg>
