<svg xmlns="http://www.w3.org/2000/svg" viewBox="0 0 1200 800" role="img" aria-labelledby="title desc">
  <title id="title">夜間の街路とデジタルサイネージを抽象化したダークグラデーションアート</title>
  <desc id="desc">深いネイビーにネオングリーンと琥珀の光を差し込み、看板事業と都市開発の融合を表現。流線形が情報の流れを描く。</desc>
  <defs>
    <radialGradient id="glow" cx="50%" cy="20%" r="70%">
      <stop offset="0%" stop-color="#36b37e" stop-opacity="0.8" />
      <stop offset="100%" stop-color="#050910" stop-opacity="0" />
    </radialGradient>
    <linearGradient id="band" x1="0%" y1="0%" x2="100%" y2="0%">
      <stop offset="0%" stop-color="#0f2f6b" />
      <stop offset="100%" stop-color="#071426" />
    </linearGradient>
    <linearGradient id="beam2" x1="0%" y1="0%" x2="100%" y2="0%">
      <stop offset="0%" stop-color="#36b37e" />
      <stop offset="100%" stop-color="#00a887" />
    </linearGradient>
    <linearGradient id="amber" x1="0%" y1="0%" x2="100%" y2="0%">
      <stop offset="0%" stop-color="#f5a623" />
      <stop offset="100%" stop-color="#ffcf8b" />
    </linearGradient>
  </defs>
  <rect width="1200" height="800" fill="#050910" />
  <rect x="0" y="0" width="1200" height="800" fill="url(#band)" opacity="0.95" />
  <circle cx="700" cy="200" r="420" fill="url(#glow)" />
  <g opacity="0.55">
    <path d="M-40 520 Q 260 420 520 520 T 1120 520" fill="none" stroke="url(#beam2)" stroke-width="26" stroke-linecap="round" />
    <path d="M-60 600 Q 260 700 520 640 T 1220 620" fill="none" stroke="url(#amber)" stroke-width="18" stroke-linecap="round" />
  </g>
  <g opacity="0.8">
    <rect x="280" y="180" width="180" height="360" rx="36" fill="rgba(5, 82, 204, 0.6)" />
    <rect x="520" y="160" width="210" height="420" rx="38" fill="rgba(22, 45, 99, 0.8)" />
    <rect x="780" y="210" width="160" height="320" rx="32" fill="rgba(15, 62, 125, 0.7)" />
  </g>
  <g>
    <rect x="330" y="260" width="110" height="140" rx="24" fill="#0b1c34" stroke="#36b37e" stroke-width="5" />
    <rect x="590" y="240" width="140" height="160" rx="28" fill="#071426" stroke="#36b37e" stroke-width="6" />
    <rect x="830" y="300" width="100" height="130" rx="24" fill="#0b1c34" stroke="#f5a623" stroke-width="5" />
  </g>
  <g opacity="0.3">
    <circle cx="360" cy="140" r="120" fill="#0052cc" />
    <circle cx="980" cy="100" r="160" fill="#0b1c34" />
  </g>
</svg>
